<?xml version="1.0" encoding="utf-8"?>
<!-- Generator: Adobe Illustrator 15.0.0, SVG Export Plug-In . SVG Version: 6.00 Build 0)  -->
<!DOCTYPE svg PUBLIC "-//W3C//DTD SVG 1.1//EN" "http://www.w3.org/Graphics/SVG/1.1/DTD/svg11.dtd">
<svg version="1.1" id="Vrstva_1" xmlns="http://www.w3.org/2000/svg" xmlns:xlink="http://www.w3.org/1999/xlink" x="0px" y="0px"
	 width="325.984px" height="68.032px" viewBox="0 0 325.984 68.032" enable-background="new 0 0 325.984 68.032"
	 xml:space="preserve">
<g>
	<path d="M198.043,23.166h6.49v6.976c-1.894,1.409-4.181,2.102-6.352,2.102c-4.712,0-7.6-3.442-7.6-8.431
		c0-5.405,3.304-8.616,7.646-8.616c2.218,0,4.435,0.901,5.982,2.679l-0.97,1.04c-1.455-1.455-3.118-2.195-4.874-2.195
		c-3.487,0-6.098,2.61-6.098,7.068c0,4.088,2.287,6.93,6.052,6.93c1.594,0,3.326-0.439,4.643-1.432v-4.689h-4.92V23.166z"/>
	<path d="M222.048,26.838h-6.999l-1.917,5.036h-1.756l6.376-16.308h1.709l6.329,16.308h-1.849L222.048,26.838z M221.563,25.291
		l-3.003-8.038l-3.003,8.038H221.563z"/>
	<path d="M243.695,30.326v1.548h-10.672V15.566h1.64v14.76H243.695z"/>
	<path d="M261.993,30.326v1.548h-10.671V15.566h1.64v14.76H261.993z"/>
	<path d="M280.822,17.114h-9.563v5.543h8.708v1.524h-8.708v6.144h9.609v1.548H269.62V15.566h11.202V17.114z"/>
	<path d="M299.652,31.874l-3.926-6.467h-4.921v6.467h-1.64V15.566h7.022c3.303,0,5.128,1.94,5.128,4.943
		c0,2.865-1.271,4.435-3.766,4.781l4.112,6.583H299.652z M290.806,23.859h5.244c2.333,0,3.626-0.832,3.626-3.35
		c0-2.471-1.293-3.395-3.58-3.395h-5.29V23.859z"/>
	<path d="M319.568,15.566l-5.405,9.955v6.353h-1.64v-6.353l-5.405-9.955h1.848l4.389,8.339l4.412-8.339H319.568z"/>
</g>
<g>
	<path d="M198.297,36.728c3.118,0,4.852,1.386,4.852,4.111c0,1.871-0.925,3.164-2.288,3.627c1.802,0.531,2.957,1.986,2.957,4.249
		c0,3.003-1.848,4.32-5.382,4.32h-7.184V36.728H198.297z M192.892,38.276v5.474h5.544c1.824,0,3.096-0.9,3.096-2.679
		c0-1.917-1.225-2.795-3.211-2.795H192.892z M198.436,45.275h-5.544v6.213h5.637c2.448,0,3.604-0.878,3.604-3.003
		C202.132,46.292,200.746,45.275,198.436,45.275z"/>
	<path d="M222.162,53.036l-3.927-6.468h-4.92v6.468h-1.64V36.728h7.021c3.303,0,5.128,1.94,5.128,4.943
		c0,2.864-1.271,4.435-3.766,4.781l4.112,6.583H222.162z M213.315,45.02h5.243c2.333,0,3.626-0.831,3.626-3.349
		c0-2.472-1.293-3.396-3.58-3.396h-5.289V45.02z"/>
	<path d="M244.965,36.728v16.308h-1.663l-9.84-13.858v13.858h-1.64V36.728h1.687l9.816,13.813V36.728H244.965z"/>
	<path d="M253.031,44.905c0-5.127,3.026-8.546,7.438-8.546c4.411,0,7.438,3.419,7.438,8.546c0,5.128-3.026,8.501-7.438,8.501
		C256.058,53.406,253.031,50.033,253.031,44.905z M266.197,44.905c0-4.505-2.401-7.021-5.728-7.021s-5.729,2.517-5.729,7.021
		c0,4.481,2.402,6.953,5.729,6.953S266.197,49.386,266.197,44.905z"/>
</g>
<g>
	<path d="M31.553,43.577H18.129l-3.33,9.365h-6.92l13.632-36.734h6.973l13.528,36.734h-7.232L31.553,43.577z M30.044,37.957
		l-5.151-15.245L19.69,37.957H30.044z"/>
	<path d="M67.767,52.942l-7.232-13.527H52.47v13.527h-6.4V16.208h15.766c8.169,0,12.748,3.955,12.748,11.603
		c0,5.88-2.289,9.471-7.232,10.771l8.117,14.36H67.767z M52.47,33.638h9.417c4.006,0,6.14-1.405,6.14-5.775
		c0-4.267-1.977-5.88-6.192-5.88H52.47V33.638z"/>
	<path d="M107.572,21.983H96.02v30.959h-6.504V21.983H77.965v-5.775h29.606V21.983z"/>
</g>
<g>
	<polygon points="164.999,17.752 133.135,17.752 117.204,1.821 180.931,1.821 	"/>
	<polygon points="181.992,2.883 181.992,66.61 166.061,50.678 166.061,18.814 	"/>
	<polygon points="132.073,18.814 132.073,50.678 116.141,66.61 116.141,2.883 	"/>
</g>
</svg>
