<?xml version="1.0" encoding="utf-8"?>
<!-- Generator: Adobe Illustrator 20.1.0, SVG Export Plug-In . SVG Version: 6.00 Build 0)  -->
<svg version="1.1" id="Vrstva_1" xmlns="http://www.w3.org/2000/svg" xmlns:xlink="http://www.w3.org/1999/xlink" x="0px" y="0px"
	 viewBox="0 0 244.7 55.2" style="enable-background:new 0 0 244.7 55.2;" xml:space="preserve">
<style type="text/css">
	.st0{fill:#FFFFFF;}
</style>
<g>
	<path class="st0" d="M36.9,36.3L36.9,36.3c-0.5-0.3-1.7-0.8-2.9-0.8c-2.6,0-4.4,1.6-4.4,3.8c0,1.2,0.7,2.4,2.1,3.5
		c1.1,0.9,2,1.7,2,3.1c0,2-1.7,2.7-2.8,2.7c-2.2,0-2.8-1.6-2.9-3l0,0l0,0c-0.1-0.1-0.1-0.1-0.2-0.1c-0.1,0-0.2,0-0.3,0.1l0,0
		c-0.3,0.6-0.4,1.6-0.4,2.3l0,0l0,0c0.6,0.9,1.9,1.4,3.5,1.4c2.7,0,4.6-1.7,4.6-4.2c0-1.7-1.1-2.8-2.2-3.7c-0.6-0.5-1.9-1.5-1.9-2.8
		c0-1.1,0.7-2.5,2.6-2.5c0.7,0,1.3,0.2,1.6,0.6c0.3,0.4,0.4,1,0.3,1.8l0,0l0,0c0.1,0.1,0.5,0.2,0.6,0l0,0l0,0c0-0.2,0.1-0.3,0.1-0.5
		C36.5,37.5,36.7,36.8,36.9,36.3L36.9,36.3z"/>
	<path class="st0" d="M43.7,40.8c-0.4,0-0.7,0.3-0.8,0.8l0,0l0,0c0.1,0.4,0.2,0.8,0.2,1.4c0,0.9-0.5,2.4-1.7,3.8
		c-0.9,1.1-1.7,1.5-2.1,1.5c-0.4,0-0.5-0.4-0.5-0.7c0-0.3,0.1-0.7,0.2-0.9l1.7-4.4c0.1-0.4,0.1-0.8-0.1-1c-0.1-0.2-0.4-0.3-0.6-0.3
		c-1.3,0-2.6,1.5-3.2,2.2l0,0c0,0.1,0,0.2,0.1,0.3c0.1,0.1,0.2,0.1,0.3,0.1h0l0,0c0.6-0.7,1.5-1.4,1.8-1.4c0.1,0,0.1,0,0.1,0.1
		c0,0.1,0,0.2-0.1,0.5l-1.4,3.6c-0.2,0.6-0.5,1.4-0.5,1.9c0,0.6,0.4,1.2,1,1.2c0.4,0,1.5-0.1,3.1-1.5c1.6-1.4,3.2-4.2,3.2-5.7
		C44.6,41.8,44.5,40.8,43.7,40.8z"/>
	<path class="st0" d="M50.2,40.8c-0.8,0-1.6,0.3-2.4,1c-2.2,1.7-3,4.1-3,5.4c0,1,0.4,2.1,1.7,2.1c1.1,0,2.2-0.6,3.2-1.8l0,0
		c0-0.1,0-0.2-0.1-0.3c-0.1-0.1-0.1-0.1-0.2-0.1h0l0,0c-0.9,0.7-1.4,1.1-2.1,1.1c-0.5,0-0.9-0.5-0.9-1.1c0-0.8,0.1-1.4,0.3-1.7
		c3.3-0.9,4.8-2,4.8-3.3C51.5,41.5,51.1,40.8,50.2,40.8z M48.4,42.5c0.8-0.8,1.3-0.9,1.5-0.9c0.4,0,0.4,0.3,0.4,0.4
		c0,0.2-0.2,0.8-0.8,1.3c-0.7,0.6-1.2,1-2.5,1.4C47.2,44.1,47.6,43.2,48.4,42.5L48.4,42.5z"/>
	<path class="st0" d="M49.7,40c0.1,0,0.3-0.1,0.5-0.3l2.5-3.3l0,0v0c0-0.1-0.1-0.2-0.1-0.3C52.4,36,52.3,36,52.2,36l0,0l-1.8,1.8
		c0,0.1-0.2,0.2-0.3,0.2c0,0-0.1-0.1-0.1-0.2l-0.9-1.8l0,0l0,0c-0.2,0-0.4,0.1-0.5,0.2l0,0l0.7,3.2C49.4,39.7,49.5,40,49.7,40z"/>
	<path class="st0" d="M56,46L56,46L56,46c-0.7,0.8-2,1.8-2.3,1.8c-0.1,0-0.1,0-0.1,0c0,0-0.1-0.1,0-0.4l1.8-5.4h2.1l0,0
		c0.1-0.1,0.3-0.2,0.3-0.4c0-0.1,0-0.3-0.1-0.4l0,0h-2.1l0.6-1.9l0,0l0,0c-0.2-0.2-0.6-0.3-0.8-0.1l0,0l-1.1,2l-1.6,0.3
		c-0.2,0.1-0.3,0.4-0.2,0.6l0,0h1.5l-1.9,5.6c-0.2,0.6-0.3,0.9-0.3,1.1c0,0.3,0.3,0.6,0.6,0.6c0.9,0,2.8-1.3,3.9-2.9l0,0
		c0-0.1,0-0.2-0.1-0.3C56.2,46,56.1,46,56,46z"/>
	<path class="st0" d="M61.3,46.3L61.3,46.3L61.3,46.3c-0.9,0.9-1.8,2-2.3,2c-0.1,0-0.1,0-0.1,0c-0.1-0.1,0-0.3,0.1-0.5l3.1-9.4
		c0.7-2.1,0.9-2.7,1.2-3.4l0,0l-0.1-0.2l0,0c-0.9,0.1-2.2,0.5-2.5,0.6c-0.1,0-0.1,0.1-0.1,0.2c0,0.1,0,0.2,0.1,0.2l0.4,0.2
		c0.2,0.1,0.5,0.2,0,1.7L57.8,47c-0.3,1-0.4,1.4-0.4,1.7c0,0.3,0.1,0.6,0.8,0.6c1.5,0,2.8-1.4,3.5-2.7l0,0c0-0.1,0-0.2-0.1-0.3
		C61.5,46.3,61.4,46.3,61.3,46.3z"/>
	<path class="st0" d="M70,40.4c-0.2-0.1-0.5-0.1-0.6,0l0,0l-0.5,1.2c-0.1-0.2-0.3-0.3-0.4-0.4c-0.1-0.1-0.3-0.1-0.5-0.1
		c-0.6,0-1.1,0.2-1.8,0.6c-0.9,0.5-1.7,1.3-2.6,2.6c-1.3,1.8-1.8,3.4-1.8,3.9c0,0.6,0.3,1.2,0.9,1.2c1,0,3-1.4,4.3-3.1l-0.6,1.7
		c-0.2,0.4-0.2,0.6-0.2,0.8c0,0.2,0.1,0.6,0.6,0.6c1.1,0,2.5-1.1,3.4-2.2l0,0v0c0-0.2-0.2-0.3-0.3-0.3h0l0,0c-1,0.9-1.7,1.3-2,1.3
		c-0.1,0-0.1,0-0.1,0c0-0.1,0-0.2,0-0.3c0.6-1.8,2.4-6.3,2.7-6.9l0,0l0,0C70.3,40.6,70.2,40.4,70,40.4z M63.7,48.2
		c-0.2,0-0.2-0.1-0.2-0.3c0-1.4,1.2-4,2.5-5.1c0.6-0.6,0.9-0.8,1.4-0.8c0.4,0,0.8,0.2,0.9,0.7c-0.2,0.6-0.8,2.5-2.6,4.2
		C64.3,48.1,63.8,48.2,63.7,48.2z"/>
	<path class="st0" d="M79.5,46.7L79.5,46.7L79.5,46.7c-0.6,0.7-1.5,1.3-1.9,1.3c0,0,0,0,0,0c0,0,0-0.1,0-0.3c0,0,0.1-0.3,0.3-0.7
		c0.5-1,1.3-3,1.6-3.7c0.2-0.4,0.3-1.1,0.3-1.4c0-0.7-0.4-1.1-1.2-1.1c-1.8,0-4.1,3.1-4.8,4.2l1.3-3.4c0.1-0.2,0.1-0.5,0-0.6
		c-0.1-0.2-0.3-0.2-0.5-0.2c-1,0-2.2,0.8-3,1.9l0,0c0,0.1,0,0.2,0.1,0.3c0.1,0.1,0.1,0.1,0.2,0.1h0l0,0c0.7-0.6,1.4-1,1.8-1
		c0,0,0.1,0,0.1,0c0,0,0,0.2,0,0.4l-2.3,6.3c-0.1,0.1-0.1,0.3,0,0.4c0.1,0.2,0.5,0.2,0.6,0.2c0.2,0,0.3-0.1,0.4-0.3l0.1-0.3
		c1.1-2,1.9-3.5,2.9-4.8c1-1.3,2.2-2.3,2.7-2.3c0.2,0,0.3,0.1,0.3,0.4c0,0.4-0.3,1.1-0.4,1.4c-0.3,0.6-0.6,1.5-1,2.4
		c-0.2,0.6-0.5,1.1-0.6,1.5c-0.4,1-0.5,1.1-0.5,1.3c0,0.3,0.3,0.5,0.5,0.5c1.2,0,2.7-1,3.5-2.2l0,0v0c0-0.1,0-0.2-0.1-0.3
		C79.7,46.7,79.6,46.7,79.5,46.7z"/>
	<path class="st0" d="M88.8,40.4c-0.2-0.1-0.5-0.1-0.6,0l0,0l-0.5,1.2c-0.1-0.2-0.3-0.3-0.4-0.4c-0.1-0.1-0.3-0.1-0.5-0.1
		c-0.6,0-1.1,0.2-1.8,0.6c-0.9,0.5-1.7,1.3-2.6,2.6c-1.3,1.8-1.8,3.4-1.8,3.9c0,0.6,0.3,1.2,0.9,1.2c1,0,3-1.4,4.3-3.1l-0.6,1.7
		C85,48.4,85,48.6,85,48.7c0,0.2,0.1,0.6,0.6,0.6c1.1,0,2.5-1.1,3.4-2.2l0,0v0c0-0.2-0.2-0.3-0.3-0.3h0l0,0c-1,0.9-1.7,1.3-2,1.3
		c-0.1,0-0.1,0-0.1,0c0-0.1,0-0.2,0-0.3c0.6-1.8,2.4-6.3,2.7-6.9l0,0l0,0C89.1,40.6,88.9,40.4,88.8,40.4z M82.5,48.2
		c-0.2,0-0.2-0.1-0.2-0.3c0-1.4,1.2-4,2.5-5.1c0.6-0.6,0.9-0.8,1.4-0.8c0.4,0,0.8,0.2,0.9,0.7c-0.2,0.6-0.8,2.5-2.6,4.2
		C83,48.1,82.6,48.2,82.5,48.2z"/>
	<path class="st0" d="M102.5,40.4c-0.2-0.1-0.5-0.1-0.6,0l0,0l-0.5,1.2c-0.1-0.2-0.3-0.3-0.4-0.4c-0.1-0.1-0.3-0.1-0.5-0.1
		c-0.6,0-1.1,0.2-1.8,0.6c-0.9,0.5-1.7,1.3-2.6,2.6c-1.3,1.8-1.8,3.4-1.8,3.9c0,0.6,0.3,1.2,0.9,1.2c1,0,3-1.4,4.3-3.1l-0.6,1.7
		c-0.2,0.4-0.2,0.6-0.2,0.8c0,0.2,0.1,0.6,0.6,0.6c1.1,0,2.5-1.1,3.4-2.2l0,0v0c0-0.2-0.2-0.3-0.3-0.3h0l0,0c-1,0.9-1.7,1.3-2,1.3
		c-0.1,0-0.1,0-0.1,0c0-0.1,0-0.2,0-0.3c0.6-1.8,2.4-6.3,2.7-6.9l0,0l0,0C102.9,40.6,102.7,40.4,102.5,40.4z M96.3,48.2
		c-0.2,0-0.2-0.1-0.2-0.3c0-1.4,1.2-4,2.5-5.1c0.6-0.6,0.9-0.8,1.4-0.8c0.4,0,0.8,0.2,0.9,0.7c-0.2,0.6-0.8,2.5-2.6,4.2
		C96.8,48.1,96.3,48.2,96.3,48.2z"/>
	<path class="st0" d="M118.3,46.3c-0.1-0.1-0.2-0.1-0.4,0l0,0l0,0c-1.2,1.9-2,2-4.3,2c-1.2,0-1.7-0.1-1.9-0.4
		c-0.2-0.3-0.1-1,0.3-2.1l2.2-7.1c0.6-2,0.7-2.2,1.8-2.3l0.6-0.1l0,0c0.1-0.1,0.1-0.2,0.1-0.3c0-0.1-0.1-0.3-0.1-0.3l0,0l0,0
		c-0.4,0-0.8,0-1.1,0c-0.5,0-0.9,0-1.4,0c-0.5,0-1,0-1.5,0c-0.3,0-0.5,0-0.8,0l0,0l0,0c-0.1,0-0.2,0.1-0.2,0.2c0,0.1,0,0.3,0.1,0.4
		l0,0l0.5,0.1c0.4,0.1,0.7,0.2,0.8,0.3c0.2,0.3,0,0.8-0.3,2l-2.3,7.4c-0.6,2-0.8,2.2-1.7,2.3l-0.5,0.1l0,0c-0.1,0.1-0.1,0.2-0.1,0.3
		c0,0.1,0.1,0.2,0.1,0.3l0,0l0,0c0.7,0,1.3-0.1,2.1-0.1h2.3c1.9,0,3.2,0,4.6,0.1l0,0l0,0c0.3-0.5,1.1-1.9,1.3-2.6l0,0l0,0
		C118.4,46.3,118.3,46.3,118.3,46.3z"/>
	<path class="st0" d="M127.9,46.5c-0.1-0.1-0.2-0.1-0.3,0l0,0l0,0c-0.6,0.7-1.6,1.5-1.9,1.5c-0.1,0-0.1,0-0.1,0c0-0.1,0-0.2,0-0.4
		c0.6-1.8,1.5-4,2-5.3c0.2-0.4,0.3-0.7,0.3-0.9l0,0l0,0c-0.1-0.3-0.6-0.5-1-0.4l0,0l0,0c-0.1,0.2-0.2,0.4-0.3,0.6
		c-0.6,1.3-1.6,3.2-3.2,4.7c-1.1,1-1.8,1.6-2.1,1.6c-0.1,0-0.1,0-0.1-0.1c0-0.1-0.1-0.2,0.1-0.5l2.2-5.8c0-0.1,0-0.2-0.1-0.4
		c-0.1-0.2-0.4-0.3-0.6-0.3c-0.9,0-2.9,1.6-3.5,2.4l0,0c0,0.1,0,0.2,0.1,0.3c0.1,0.1,0.2,0.1,0.3,0.1l0,0l0,0
		c0.5-0.6,1.5-1.4,1.8-1.4c0,0,0,0,0,0c0,0,0,0.2-0.1,0.5l-1.8,4.8c-0.2,0.6-0.2,1.1,0,1.5c0.1,0.2,0.4,0.3,0.7,0.3
		c1.1,0,3.5-2.5,4.9-4.2l-1.3,3.5c-0.1,0.2,0,0.3,0.1,0.5c0.1,0.2,0.3,0.3,0.5,0.3c1.1,0,3-1.6,3.5-2.5l0,0l0,0
		C128,46.6,127.9,46.5,127.9,46.5z"/>
	<path class="st0" d="M135.6,40.8c-1.3,0-2.6,1-4.1,3.2l2.5-6.5l1-2.6l0,0l-0.1-0.2l0,0c0,0-0.1,0-0.1,0c-0.9,0-1.9,0.2-2.3,0.4l0,0
		c-0.1,0.1-0.1,0.2-0.1,0.3l0,0l0.5,0.3c0.2,0.2,0.2,0.5-0.2,1.6l-2.3,6.1c-0.7,1.9-1,3.1-1,3.9c0,1.2,0.6,1.9,1.6,1.9
		c0.9,0,2.3-0.5,3.8-1.9c1.6-1.6,2.6-3.3,2.6-4.7C137.4,41.5,136.7,40.8,135.6,40.8z M131.4,48.6c-0.4,0-0.6-0.4-0.6-1
		c0-0.9,0.6-2.5,1.9-3.9c1.1-1.3,2.1-2.1,2.7-2.1c0.2,0,0.6,0.1,0.6,0.7c0,1.1-1.4,3.6-2.7,5C132.4,48.2,131.7,48.6,131.4,48.6z"/>
	<path class="st0" d="M143.1,40.8c-1,0-1.8,0.4-2.8,1.3c-1.4,1.3-2.1,3.2-2.2,4.5c-0.1,0.9,0.1,1.6,0.6,2.1c0.4,0.4,0.9,0.6,1.5,0.6
		c1,0,2-0.5,2.9-1.4c1.4-1.4,2.1-3.3,2.1-4.5c0-0.8-0.2-1.5-0.6-2C144.3,41,143.7,40.8,143.1,40.8z M140.4,48.6
		c-0.2,0-0.4-0.1-0.5-0.2c-0.2-0.2-0.3-0.6-0.3-1c0.1-1,0.8-3.3,2-4.9c0.6-0.8,1.1-0.9,1.4-0.9c0.2,0,0.4,0.1,0.5,0.2
		c0.2,0.2,0.3,0.6,0.3,1.1c0,1-1,3.7-1.8,4.8C141.2,48.5,140.7,48.6,140.4,48.6z"/>
	<path class="st0" d="M149.8,40.8c-0.3,0-0.9,0.2-1.5,0.7c-0.9,0.7-1.2,1.3-1.2,2.1c0,0.4,0.2,1,0.7,1.9c0.5,0.7,0.7,1.4,0.7,1.7
		c0,0.6-0.5,1.1-0.9,1.1c-0.5,0-1.1-0.5-1.3-0.8c-0.2-0.2-0.4-0.2-0.6,0c-0.2,0.2-0.3,0.5-0.3,0.7c0,0.5,0.4,1.1,1.3,1.1
		c0.8,0,1.5-0.3,2-0.7c0.9-0.8,1-1.6,1.1-1.9c0-0.9-0.3-1.4-0.8-2.2c-0.6-0.9-0.7-1.4-0.7-1.8c0-0.3,0.2-0.7,0.8-0.7
		c0.6,0,0.8,0.2,1.1,0.6l0.1,0.1c0.1,0.2,0.3,0.2,0.4,0.2c0.2-0.1,0.4-0.3,0.4-0.7C151.1,41.4,150.5,40.8,149.8,40.8z"/>
	<path class="st0" d="M152.1,36.1L152.1,36.1l-1.8,1.8c-0.1,0.1-0.2,0.2-0.3,0.2c0,0-0.1-0.1-0.1-0.2l-0.9-1.8l0,0l0,0
		c-0.2,0-0.4,0.1-0.5,0.2l0,0l0.7,3.2c0,0.2,0.1,0.4,0.3,0.4c0.1,0,0.3-0.1,0.5-0.3l2.5-3.3l0,0v0c0-0.1-0.1-0.2-0.1-0.3
		C152.3,36.1,152.2,36.1,152.1,36.1z"/>
	<path class="st0" d="M163.9,36.4l0.5-0.1l0,0c0.1-0.1,0.1-0.1,0.1-0.3c0-0.1-0.1-0.2-0.1-0.3l0,0l0,0c-0.7,0-1.4,0.1-2.2,0.1
		c-0.9,0-1.6,0-2.3-0.1l0,0l0,0c-0.1,0-0.2,0.1-0.2,0.2c0,0.1,0,0.2,0.1,0.3l0,0l0.5,0.1c0.4,0.1,0.6,0.2,0.7,0.3
		c0.2,0.3,0,0.8-0.3,2l-2.4,7.8c-0.6,2.1-1.2,3.5-1.3,3.9c-0.3,0.8-0.7,1.7-1.2,1.7c-0.3,0-0.5-0.1-0.9-0.3l0,0
		c-0.2-0.1-0.4-0.3-0.7-0.3c-0.4,0-0.8,0.6-0.8,0.9c0,0.4,0.5,0.6,1.3,0.6c1.5,0,2.8-0.8,3.7-2.2c0.5-0.8,0.9-1.7,1.3-3l2.8-9.1
		C162.8,36.8,162.9,36.6,163.9,36.4z"/>
	<path class="st0" d="M167.8,40.8c-0.8,0-1.6,0.3-2.4,1c-2.2,1.7-3,4.1-3,5.4c0,1,0.4,2.1,1.7,2.1c1.1,0,2.2-0.6,3.2-1.8l0,0
		c0-0.1,0-0.2-0.1-0.3c-0.1-0.1-0.1-0.1-0.2-0.1h0l0,0c-0.9,0.7-1.4,1.1-2.1,1.1c-0.5,0-0.9-0.5-0.9-1.1c0-0.8,0.1-1.4,0.3-1.7
		c3.3-0.9,4.8-2,4.8-3.3C169.1,41.5,168.6,40.8,167.8,40.8z M165.9,42.5c0.8-0.8,1.3-0.9,1.5-0.9c0.4,0,0.4,0.3,0.4,0.4
		c0,0.2-0.2,0.8-0.8,1.3c-0.7,0.6-1.2,1-2.5,1.4C164.7,44.1,165.2,43.2,165.9,42.5L165.9,42.5z"/>
	<path class="st0" d="M174,38.3c0.7-2.1,0.9-2.7,1.2-3.4l0,0l-0.1-0.2l0,0c-0.9,0.1-2.2,0.5-2.5,0.6c-0.1,0-0.1,0.1-0.1,0.2
		c0,0.1,0,0.2,0.1,0.2l0.4,0.2c0.2,0.1,0.5,0.2,0,1.7l-3.2,9.4c-0.3,1-0.4,1.4-0.4,1.7c0,0.3,0.1,0.6,0.8,0.6c1.5,0,2.8-1.4,3.5-2.7
		l0,0c0-0.1,0-0.2-0.1-0.3c-0.1,0-0.1-0.1-0.2-0.1c0,0,0,0-0.1,0l0,0l0,0c-0.8,0.9-1.8,2-2.2,2c-0.1,0-0.1,0-0.1,0
		c-0.1-0.1,0-0.3,0.1-0.5L174,38.3z"/>
	<path class="st0" d="M178.4,42c0.2-0.6,0.3-0.8,0.1-0.9l0,0c-0.1-0.1-0.2-0.2-0.3-0.2c-0.6,0-2.2,0.7-3.3,2l0,0c0,0.1,0,0.2,0,0.3
		c0.1,0.1,0.1,0.1,0.3,0.1l0,0l0,0c1-0.9,1.5-1,1.6-1c0,0,0,0,0,0c0,0,0,0.1-0.1,0.3l-2.5,6c-0.1,0.2-0.1,0.4,0.1,0.6
		c0.1,0.1,0.2,0.2,0.4,0.2c1.4,0,3.5-1.8,3.8-2.4l0,0c0-0.2-0.1-0.4-0.3-0.4l0,0l0,0c-0.7,0.8-1.7,1.5-2,1.5c0,0,0,0,0,0
		c0-0.1,0-0.2,0-0.3L178.4,42z"/>
	<path class="st0" d="M177.9,40l2.5-2.2c0.2-0.2,0.4-0.4,0.4-0.5c0-0.2-0.1-0.4-0.3-0.6c-0.3-0.3-0.5-0.3-0.6-0.3c0,0,0,0,0,0
		c0,0,0,0,0,0c-0.2,0-0.4,0.2-0.5,0.4l-1.9,2.8l0,0v0C177.6,39.8,177.8,40,177.9,40L177.9,40z"/>
	<path class="st0" d="M188.1,46.7L188.1,46.7L188.1,46.7c-0.6,0.7-1.5,1.3-1.9,1.3c0,0,0,0,0,0c0,0,0-0.1,0-0.3c0,0,0.1-0.3,0.3-0.7
		c0.5-1,1.3-3,1.6-3.7c0.2-0.4,0.3-1.1,0.3-1.4c0-0.7-0.4-1.1-1.2-1.1c-1.8,0-4.1,3.1-4.8,4.2l1.3-3.4c0.1-0.2,0.1-0.5,0-0.6
		c-0.1-0.2-0.3-0.2-0.5-0.2c-1,0-2.2,0.8-3,1.9l0,0c0,0.1,0,0.2,0.1,0.3c0.1,0.1,0.1,0.1,0.2,0.1h0l0,0c0.7-0.6,1.4-1,1.8-1
		c0,0,0.1,0,0.1,0c0,0,0,0.2,0,0.4l-2.3,6.3c-0.1,0.1-0.1,0.3,0,0.4c0.1,0.2,0.5,0.2,0.6,0.2c0.2,0,0.3-0.1,0.4-0.3l0.1-0.3
		c1.1-2,1.9-3.5,2.9-4.8c1-1.3,2.2-2.3,2.7-2.3c0.2,0,0.3,0.1,0.3,0.4c0,0.4-0.3,1.1-0.4,1.4c-0.3,0.6-0.6,1.5-1,2.4
		c-0.2,0.6-0.5,1.1-0.6,1.5l0,0c-0.4,1-0.5,1.1-0.5,1.3c0,0.3,0.3,0.5,0.5,0.5c1.2,0,2.7-1,3.5-2.2l0,0v0c0-0.1,0-0.2-0.1-0.3
		C188.3,46.7,188.2,46.7,188.1,46.7z"/>
	<path class="st0" d="M196.7,40.8c-0.7,0-1.5,0.3-2.2,0.8c-0.7,0.5-1.4,1.2-1.9,1.9l2-5.7c0.6-1.7,0.8-2.4,1-2.9l0,0l-0.2-0.1l0,0
		c-0.9,0.2-1.9,0.5-2.4,0.7l0,0c-0.1,0.1-0.1,0.1-0.1,0.2c0,0.1,0.1,0.1,0.1,0.2l0.4,0.2c0.3,0.1,0.3,0.3-0.2,1.7l-3.6,11
		c0,0.1,0,0.3,0,0.4c0.2,0.2,0.5,0.2,0.7,0.2c0.2,0,0.3-0.1,0.4-0.3l1-2.5c0.2-0.6,0.3-0.7,0.7-0.8c0.3-0.1,0.5,0.1,0.7,0.6
		c0.2,0.5,0.7,1.7,0.9,2.1c0.3,0.5,0.5,0.8,1,0.8c0.4,0,1.4-0.5,2-1.9l0,0c0-0.1-0.1-0.3-0.3-0.3h0l0,0c-0.5,0.6-0.9,0.9-1.2,0.9
		c-0.2,0-0.4-0.2-0.6-0.6c-0.2-0.4-0.6-1.3-0.7-1.9c-0.1-0.2,0-0.3,0-0.3c1.4-0.2,2.4-1,3.2-1.8c0.7-0.6,0.8-1.2,0.8-1.5
		C198.1,41.4,197.8,40.8,196.7,40.8z M196.5,42.2c0,0.4-0.4,1.1-1.2,1.6c-1.4,0.9-2.5,1.2-2.9,1.3c-0.1,0-0.1,0-0.2,0
		c0,0,0-0.1,0-0.2c0.2-0.6,1.1-1.5,1.8-2.1c0.7-0.6,1.4-1,1.9-1C196.3,41.8,196.5,42,196.5,42.2z"/>
	<path class="st0" d="M203.5,40.8c-1,0-1.8,0.4-2.8,1.3c-1.4,1.3-2.1,3.2-2.2,4.5c-0.1,0.9,0.1,1.6,0.6,2.1c0.4,0.4,0.9,0.6,1.5,0.6
		c1,0,2-0.5,2.9-1.4c1.4-1.4,2.1-3.3,2.1-4.5c0-0.8-0.2-1.5-0.6-2C204.6,41,204.1,40.8,203.5,40.8z M200.7,48.6
		c-0.2,0-0.4-0.1-0.5-0.2c-0.2-0.2-0.3-0.6-0.3-1c0.1-1,0.8-3.3,2-4.9c0.6-0.8,1.1-0.9,1.4-0.9c0.2,0,0.4,0.1,0.5,0.2
		c0.2,0.2,0.3,0.6,0.3,1.1c0,1-1,3.7-1.8,4.8C201.6,48.5,201.1,48.6,200.7,48.6z"/>
	<path class="st0" d="M213.5,40.8c-0.4,0-0.7,0.3-0.8,0.8l0,0l0,0c0.1,0.4,0.2,0.8,0.2,1.4c0,0.9-0.5,2.4-1.7,3.8
		c-0.9,1.1-1.7,1.5-2.1,1.5c-0.4,0-0.5-0.4-0.5-0.7c0-0.3,0.1-0.7,0.2-0.9l1.7-4.4c0.1-0.4,0.1-0.8-0.1-1c-0.1-0.2-0.4-0.3-0.6-0.3
		c-1.3,0-2.6,1.5-3.2,2.2l0,0c0,0.1,0,0.2,0.1,0.3c0.1,0.1,0.2,0.1,0.3,0.1h0l0,0c0.6-0.7,1.5-1.4,1.8-1.4c0.1,0,0.1,0,0.1,0.1
		c0,0.1,0,0.2-0.1,0.5l-1.4,3.6c-0.2,0.6-0.5,1.4-0.5,1.9c0,0.6,0.4,1.2,1,1.2c0.4,0,1.5-0.1,3.1-1.5c1.6-1.4,3.2-4.2,3.2-5.7
		C214.4,41.8,214.3,40.8,213.5,40.8z"/>
	<path class="st0" d="M219.2,36.7c-0.8,0-1.1,0.9-1.1,1.3c0,0.4,0.2,0.8,0.7,0.8c0.6,0,1.1-0.7,1.1-1.3
		C219.9,37,219.6,36.7,219.2,36.7z"/>
	<path class="st0" d="M219.1,42c0.2-0.6,0.3-0.8,0.1-0.9l0,0c-0.1-0.1-0.2-0.2-0.3-0.2c-0.6,0-2.2,0.7-3.3,2l0,0c0,0.1,0,0.2,0,0.3
		c0.1,0.1,0.1,0.1,0.3,0.1l0,0l0,0c1-0.9,1.5-1,1.6-1c0,0,0,0,0,0c0,0,0,0.1-0.1,0.3l-2.5,6c-0.1,0.2-0.1,0.4,0.1,0.6
		c0.1,0.1,0.2,0.2,0.4,0.2c1.4,0,3.5-1.8,3.8-2.4l0,0c0-0.2-0.1-0.4-0.3-0.4l0,0l0,0c-0.7,0.8-1.7,1.5-2,1.5c0,0,0,0,0,0
		c0-0.1,0-0.2,0-0.3L219.1,42z"/>
	<path class="st0" d="M9.9,14.6h7.5v4.6c-0.6,0.6-2.6,2.4-5.7,2.4c-4.7,0-8.2-3.6-8.2-8.7c0-5,3.4-8.6,8.2-8.6c2.4,0,4.7,1,6.1,2.7
		l0.1,0.1l1.4-1L19.2,6c-2-2.3-4.5-3.4-7.5-3.4C5.8,2.6,1.5,6.9,1.5,12.9c0,5.9,4.4,10.4,10.2,10.4c2.9,0,5.7-1.2,7.6-3.3l0,0v-7.1
		H9.9V14.6z"/>
	<path class="st0" d="M32.9,18.1h10.4l2,4.9h2.1L39.2,2.9H37l-8.2,20.1h2.1L32.9,18.1z M33.5,16.3l4.6-11.4l4.6,11.4H33.5z"/>
	<polygon class="st0" points="69,21.2 59.4,21.2 59.4,2.9 57.5,2.9 57.5,22.9 69,22.9 	"/>
	<polygon class="st0" points="80,22.9 92.8,22.9 92.8,21.2 81.9,21.2 81.9,13.5 92.6,13.5 92.6,11.8 81.9,11.8 81.9,4.6 92.8,4.6 
		92.8,2.9 80,2.9 	"/>
	<path class="st0" d="M115.9,22.9L115.9,22.9l2.3,0l-5.8-8.3c2.7-0.2,5.4-2,5.4-5.8c0-3.5-2.5-5.9-6.1-5.9h-7.5v20.1h1.9v-8.2h4.2
		L115.9,22.9z M106.1,4.6h5.5c2.5,0,4.3,1.7,4.3,4.2c0,2.5-1.8,4.2-4.3,4.2h-5.5V4.6z"/>
	<rect x="129.3" y="2.9" class="st0" width="1.9" height="20.1"/>
	<polygon class="st0" points="156.2,21.2 145.3,21.2 145.3,13.5 156,13.5 156,11.8 145.3,11.8 145.3,4.6 156.2,4.6 156.2,2.9 
		143.4,2.9 143.4,22.9 156.2,22.9 	"/>
	<path class="st0" d="M193.5,22.9l-8.2-20.1H183l-8.2,20.1h2.1l2-4.9h10.4l2,4.9H193.5z M188.7,16.3h-9.2l4.6-11.4L188.7,16.3z"/>
	<path class="st0" d="M205.5,14.7h4.2l5.5,8.2l0,0h2.3l-5.8-8.3c2.7-0.2,5.4-2,5.4-5.8c0-3.5-2.5-5.9-6.1-5.9h-7.5v20.1h1.9V14.7z
		 M205.5,4.6h5.5c2.5,0,4.3,1.7,4.3,4.2c0,2.5-1.8,4.2-4.3,4.2h-5.5V4.6z"/>
	<polygon class="st0" points="227,2.9 227,4.6 233.5,4.6 233.5,22.9 235.4,22.9 235.4,4.6 241.9,4.6 241.9,2.9 	"/>
</g>
</svg>
